<?xml version="1.0" encoding="UTF-8"?>
<!DOCTYPE svg PUBLIC "-//W3C//DTD SVG 1.1//EN" "http://www.w3.org/Graphics/SVG/1.1/DTD/svg11.dtd">
<!-- Creator: CorelDRAW -->
<svg xmlns="http://www.w3.org/2000/svg" xml:space="preserve" width="9.2252mm" height="7.1424mm" version="1.1" style="shape-rendering:geometricPrecision; text-rendering:geometricPrecision; image-rendering:optimizeQuality; fill-rule:evenodd; clip-rule:evenodd"
viewBox="0 0 943.28 730.31"
 xmlns:xlink="http://www.w3.org/1999/xlink"
 xmlns:xodm="http://www.corel.com/coreldraw/odm/2003">
 <defs>
  <style type="text/css">
   <![CDATA[
    .fil2 {fill:none}
    .fil1 {fill:#FEFEFE}
    .fil0 {fill:#FF6423}
   ]]>
  </style>
    <clipPath id="id0">
     <path d="M-0 5c2.59,2.67 17.86,37.45 20.97,44.34l62.69 136.27c14.09,29.86 27.69,60.66 41.83,90.89 13.93,29.73 28.07,60.32 41.78,90.77 27.29,60.56 56.37,119.94 83.31,181.07 13.13,29.79 28.08,60.78 41.82,90.8l31.45 68.15c3.08,6.78 6.78,16.44 10.53,22.57l608.89 0.46 0 -3.51c-4.86,-3.65 -37.24,-38.95 -42.11,-44.19 -3.62,-3.91 -6.38,-6.57 -10.44,-10.75l-52.89 -56.74c-15.54,-16.33 -38.99,-39.91 -52.95,-55.74l-20.84 -22.45c-23.23,-25.57 -51.21,-52.89 -74.11,-78.82l-115.81 -122.75c-11.77,-13.15 -30.83,-31.75 -42.52,-44.98 -12.91,-14.63 -28.77,-30.35 -42.06,-44.53l-52.97 -56.68c-7.61,-8.06 -13.59,-14.04 -21.2,-22.11l-73.72 -78.26c-3.85,-3.85 -6.63,-7.85 -10.48,-11.62 -14.66,-14.34 -29.18,-32.09 -42.78,-44.72 -6.29,-5.86 -11.2,-9.67 -19.01,-14.19 -11.07,-6.31 -20.57,-9.8 -33.09,-12.82 -8.95,-2.14 -20.42,-3.77 -29.94,-3.99 -22.86,-0.5 -46,0.25 -68.9,-0.34 -37.93,-0.94 -76.64,-1.1 -114.85,-1.12l-1.85 0c-6.93,0 -13.87,0 -20.77,0l0 2.51 0 2.48 -0.02 0.01z"/>
    </clipPath>
 </defs>
 <g id="Layer_x0020_1">
  <metadata id="CorelCorpID_0Corel-Layer"/>
  <g id="_1829441877952">
   <path class="fil0" d="M-0 5c2.59,2.67 17.86,37.45 20.97,44.34l62.69 136.27c14.09,29.86 27.69,60.66 41.83,90.89 13.93,29.73 28.07,60.32 41.78,90.77 27.29,60.56 56.37,119.94 83.31,181.07 13.13,29.79 28.08,60.78 41.82,90.8l31.45 68.15c3.08,6.78 6.78,16.44 10.53,22.57l608.89 0.46 0 -3.51c-4.86,-3.65 -37.24,-38.95 -42.11,-44.19 -3.62,-3.91 -6.38,-6.57 -10.44,-10.75l-52.89 -56.74c-15.54,-16.33 -38.99,-39.91 -52.95,-55.74l-20.84 -22.45c-23.23,-25.57 -51.21,-52.89 -74.11,-78.82l-115.81 -122.75c-11.77,-13.15 -30.83,-31.75 -42.52,-44.98 -12.91,-14.63 -28.77,-30.35 -42.06,-44.53l-52.97 -56.68c-7.61,-8.06 -13.59,-14.04 -21.2,-22.11l-73.72 -78.26c-3.85,-3.85 -6.63,-7.85 -10.48,-11.62 -14.66,-14.34 -29.18,-32.09 -42.78,-44.72 -6.29,-5.86 -11.2,-9.67 -19.01,-14.19 -11.07,-6.31 -20.57,-9.8 -33.09,-12.82 -8.95,-2.14 -20.42,-3.77 -29.94,-3.99 -22.86,-0.5 -46,0.25 -68.9,-0.34 -37.93,-0.94 -76.64,-1.1 -114.85,-1.12l-1.85 0c-6.93,0 -13.87,0 -20.77,0l0 2.51 0 2.48 -0.02 0.01z"/>
   <g>
   </g>
   <g style="clip-path:url(#id0)">
    <g>
     <path id="_1" class="fil1" d="M293.67 358.53l0 41.67c1.88,-0.15 3.23,-1.24 5.12,-1.74 1.95,-0.54 4.19,-1.06 5.99,-1.34 17.43,-2.65 37.31,-1.03 49.45,11.21l2.13 1.99c9.4,9 15.19,20.63 20.96,32.16l20.45 41.83c0.41,1.57 -5.21,11.65 -6.26,13.73l-20.6 41.68c-1.15,2.29 -2.36,4.23 -3.65,6.42 -6.88,11.61 -16.33,18.8 -28.57,23.64 -10.57,4.17 -27.39,3.55 -38.71,0.87 -2.06,-0.49 -4.29,-1.43 -6.31,-1.47l0 40.76c0,2.86 12.68,4.22 16.34,4.71 2.56,0.36 6.67,0.81 9.75,0.79l6.94 0.19c8.62,0.57 4.87,-0.26 11.37,-0.2 14.04,0.12 30.79,-4.87 42.15,-12.35 12.47,-8.23 21.38,-20.07 29.22,-33.07l15.38 -31.32c4.13,-9.97 24.08,-52.32 24.08,-53.76l-21.68 -48.39c-0.96,-1.91 -1.48,-3.43 -2.44,-5.34l-4.86 -10.71c-5.6,-13.1 -11.22,-23.9 -19.5,-35 -5.18,-6.96 -12.66,-14 -20.02,-18.9 -16.42,-10.93 -32.89,-13.1 -56.05,-13.1 -7.61,0 -17.18,0.92 -23.92,2.65 -3.67,0.94 -5.3,2.05 -6.77,2.39z"/>
     <path class="fil1" d="M528.59 615.88c9.17,0 30.82,-0.66 38.01,-4.12l0 -43.05c-1.73,0.14 -3.69,0.97 -5.52,1.34 -13.55,2.76 -28.24,3.63 -41.83,0.22 -11.56,-2.89 -23.52,-10.81 -30.5,-19.88 -7.16,-9.3 -7.4,-9.44 -13.64,-19.78l-9.06 -15.69c-0.94,-1.6 -2.19,-4.41 -3.39,-5.3 -0.75,1.4 -1.22,2.83 -1.98,4.43 -5.65,11.75 -12.82,29.4 -18.64,42.27 -1.81,4 -1.65,2.17 2.28,8.73 1.69,2.82 3.39,5.22 5.39,7.89l13 15.4c0.06,0.06 0.16,0.16 0.22,0.22l6.07 5.84c17.91,14.35 31.96,21.45 59.6,21.45z"/>
     <path class="fil1" d="M462.65 459.74l16.39 -26.65c6.82,-10.23 14.46,-20.05 24.82,-26.93 1.84,-1.22 3.44,-2.09 5.41,-3.29 13.59,-8.3 35.18,-7.75 50.56,-4.13 2.59,0.61 4.48,1.4 6.77,1.93l0 -43.05c-7.66,-3.67 -28.63,-4.12 -39.39,-4.12 -36.64,0 -57.33,17.07 -77.13,43.31l-7.86 11.83c-1.49,2.4 -1.64,2.29 -0.69,4.39 4.21,9.33 12.88,29.4 16.84,37.25l4.27 9.46z"/>
    </g>
   </g>
   <path class="fil2" d="M-0 5c2.59,2.67 17.86,37.45 20.97,44.34l62.69 136.27c14.09,29.86 27.69,60.66 41.83,90.89 13.93,29.73 28.07,60.32 41.78,90.77 27.29,60.56 56.37,119.94 83.31,181.07 13.13,29.79 28.08,60.78 41.82,90.8l31.45 68.15c3.08,6.78 6.78,16.44 10.53,22.57l608.89 0.46 0 -3.51c-4.86,-3.65 -37.24,-38.95 -42.11,-44.19 -3.62,-3.91 -6.38,-6.57 -10.44,-10.75l-52.89 -56.74c-15.54,-16.33 -38.99,-39.91 -52.95,-55.74l-20.84 -22.45c-23.23,-25.57 -51.21,-52.89 -74.11,-78.82l-115.81 -122.75c-11.77,-13.15 -30.83,-31.75 -42.52,-44.98 -12.91,-14.63 -28.77,-30.35 -42.06,-44.53l-52.97 -56.68c-7.61,-8.06 -13.59,-14.04 -21.2,-22.11l-73.72 -78.26c-3.85,-3.85 -6.63,-7.85 -10.48,-11.62 -14.66,-14.34 -29.18,-32.09 -42.78,-44.72 -6.29,-5.86 -11.2,-9.67 -19.01,-14.19 -11.07,-6.31 -20.57,-9.8 -33.09,-12.82 -8.95,-2.14 -20.42,-3.77 -29.94,-3.99 -22.86,-0.5 -46,0.25 -68.9,-0.34 -37.93,-0.94 -76.64,-1.1 -114.85,-1.12l-1.85 0c-6.93,0 -13.87,0 -20.77,0l0 2.51 0 2.48 -0.02 0.01z"/>
   <path class="fil2" d="M-0 5c2.59,2.67 17.86,37.45 20.97,44.34l62.69 136.27c14.09,29.86 27.69,60.66 41.83,90.89 13.93,29.73 28.07,60.32 41.78,90.77 27.29,60.56 56.37,119.94 83.31,181.07 13.13,29.79 28.08,60.78 41.82,90.8l31.45 68.15c3.08,6.78 6.78,16.44 10.53,22.57l608.89 0.46 0 -3.51c-4.86,-3.65 -37.24,-38.95 -42.11,-44.19 -3.62,-3.91 -6.38,-6.57 -10.44,-10.75l-52.89 -56.74c-15.54,-16.33 -38.99,-39.91 -52.95,-55.74l-20.84 -22.45c-23.23,-25.57 -51.21,-52.89 -74.11,-78.82l-115.81 -122.75c-11.77,-13.15 -30.83,-31.75 -42.52,-44.98 -12.91,-14.63 -28.77,-30.35 -42.06,-44.53l-52.97 -56.68c-7.61,-8.06 -13.59,-14.04 -21.2,-22.11l-73.72 -78.26c-3.85,-3.85 -6.63,-7.85 -10.48,-11.62 -14.66,-14.34 -29.18,-32.09 -42.78,-44.72 -6.29,-5.86 -11.2,-9.67 -19.01,-14.19 -11.07,-6.31 -20.57,-9.8 -33.09,-12.82 -8.95,-2.14 -20.42,-3.77 -29.94,-3.99 -22.86,-0.5 -46,0.25 -68.9,-0.34 -37.93,-0.94 -76.64,-1.1 -114.85,-1.12l-1.85 0c-6.93,0 -13.87,0 -20.77,0l0 2.51 0 2.48 -0.02 0.01z"/>
  </g>
 </g>
</svg>
