<?xml version="1.0" encoding="UTF-8"?>
<!DOCTYPE svg PUBLIC "-//W3C//DTD SVG 1.1//EN" "http://www.w3.org/Graphics/SVG/1.1/DTD/svg11.dtd">
<!-- Creator: CorelDRAW -->
<svg xmlns="http://www.w3.org/2000/svg" xml:space="preserve" width="9.2252mm" height="7.1424mm" version="1.1" style="shape-rendering:geometricPrecision; text-rendering:geometricPrecision; image-rendering:optimizeQuality; fill-rule:evenodd; clip-rule:evenodd"
viewBox="0 0 919.77 712.11"
 xmlns:xlink="http://www.w3.org/1999/xlink"
 xmlns:xodm="http://www.corel.com/coreldraw/odm/2003">
 <defs>
  <style type="text/css">
   <![CDATA[
    .fil2 {fill:none}
    .fil1 {fill:#5C0FD9}
    .fil0 {fill:#FF6300}
   ]]>
  </style>
   <clipPath id="id0">
    <path d="M-0 4.87c2.52,2.6 17.42,36.52 20.45,43.23l61.13 132.87c13.74,29.11 27,59.15 40.79,88.63 13.58,28.99 27.37,58.81 40.74,88.51 26.61,59.05 54.97,116.95 81.24,176.56 12.8,29.04 27.38,59.26 40.78,88.54l30.67 66.45c3,6.61 6.61,16.03 10.27,22l593.71 0.45 0 -3.42c-4.74,-3.56 -36.31,-37.98 -41.06,-43.09 -3.53,-3.81 -6.22,-6.41 -10.18,-10.48l-51.58 -55.32c-15.15,-15.92 -38.02,-38.91 -51.63,-54.35l-20.32 -21.89c-22.65,-24.94 -49.93,-51.58 -72.26,-76.86l-112.92 -119.69c-11.48,-12.82 -30.06,-30.96 -41.46,-43.86 -12.59,-14.27 -28.06,-29.59 -41.01,-43.42l-51.65 -55.26c-7.42,-7.86 -13.25,-13.69 -20.67,-21.56l-71.89 -76.31c-3.76,-3.76 -6.46,-7.66 -10.22,-11.33 -14.3,-13.98 -28.45,-31.29 -41.72,-43.61 -6.13,-5.71 -10.92,-9.43 -18.53,-13.84 -10.8,-6.15 -20.06,-9.55 -32.26,-12.5 -8.72,-2.08 -19.91,-3.68 -29.19,-3.89 -22.29,-0.49 -44.86,0.24 -67.18,-0.33 -36.99,-0.92 -74.73,-1.08 -111.99,-1.1l-1.8 0c-6.76,0 -13.52,0 -20.25,0l0 2.44 0 2.42z"/>
   </clipPath>
 </defs>
 <g id="Layer_x0020_1">
  <metadata id="CorelCorpID_0Corel-Layer"/>
  <path class="fil0" d="M-0 4.87c2.52,2.6 17.42,36.52 20.45,43.23l61.13 132.87c13.74,29.11 27,59.15 40.79,88.63 13.58,28.99 27.37,58.81 40.74,88.51 26.61,59.05 54.97,116.95 81.24,176.56 12.8,29.04 27.38,59.26 40.78,88.54l30.67 66.45c3,6.61 6.61,16.03 10.27,22l593.71 0.45 0 -3.42c-4.74,-3.56 -36.31,-37.98 -41.06,-43.09 -3.53,-3.81 -6.22,-6.41 -10.18,-10.48l-51.58 -55.32c-15.15,-15.92 -38.02,-38.91 -51.63,-54.35l-20.32 -21.89c-22.65,-24.94 -49.93,-51.58 -72.26,-76.86l-112.92 -119.69c-11.48,-12.82 -30.06,-30.96 -41.46,-43.86 -12.59,-14.27 -28.06,-29.59 -41.01,-43.42l-51.65 -55.26c-7.42,-7.86 -13.25,-13.69 -20.67,-21.56l-71.89 -76.31c-3.76,-3.76 -6.46,-7.66 -10.22,-11.33 -14.3,-13.98 -28.45,-31.29 -41.72,-43.61 -6.13,-5.71 -10.92,-9.43 -18.53,-13.84 -10.8,-6.15 -20.06,-9.55 -32.26,-12.5 -8.72,-2.08 -19.91,-3.68 -29.19,-3.89 -22.29,-0.49 -44.86,0.24 -67.18,-0.33 -36.99,-0.92 -74.73,-1.08 -111.99,-1.1l-1.8 0c-6.76,0 -13.52,0 -20.25,0l0 2.44 0 2.42z"/>
  <g style="clip-path:url(#id0)">
   <g id="_1829434967536">
    <path id="_1" class="fil1" d="M284.46 665.25l-29.36 0c-5.45,-13.73 8.94,-28.47 17.45,-44.15 28.3,-52.07 106.75,-186.42 122.38,-225.92 25.02,-63.27 7.38,-76.42 -4.02,-106.57l59.17 0c28.42,16.14 30.34,9.63 49.16,38.89 38.57,60.02 30.58,60.09 -34.51,170.43 -32.14,54.46 -55.85,118.79 -110.57,147.25 -25.71,13.39 -49.55,11.71 -69.71,20.07z"/>
    <path class="fil1" d="M693.57 655.48l0 9.77 -32.29 0c-30.74,-13.12 -163.45,-24.45 -143.88,-175.84 3.11,-24 13.83,-64.74 33.69,-74 21.02,40.19 46.83,80.21 70.52,121.28 13.87,24.06 56.54,102.33 71.96,118.79z"/>
   </g>
  </g>
  <path class="fil2" d="M-0 4.87c2.52,2.6 17.42,36.52 20.45,43.23l61.13 132.87c13.74,29.11 27,59.15 40.79,88.63 13.58,28.99 27.37,58.81 40.74,88.51 26.61,59.05 54.97,116.95 81.24,176.56 12.8,29.04 27.38,59.26 40.78,88.54l30.67 66.45c3,6.61 6.61,16.03 10.27,22l593.71 0.45 0 -3.42c-4.74,-3.56 -36.31,-37.98 -41.06,-43.09 -3.53,-3.81 -6.22,-6.41 -10.18,-10.48l-51.58 -55.32c-15.15,-15.92 -38.02,-38.91 -51.63,-54.35l-20.32 -21.89c-22.65,-24.94 -49.93,-51.58 -72.26,-76.86l-112.92 -119.69c-11.48,-12.82 -30.06,-30.96 -41.46,-43.86 -12.59,-14.27 -28.06,-29.59 -41.01,-43.42l-51.65 -55.26c-7.42,-7.86 -13.25,-13.69 -20.67,-21.56l-71.89 -76.31c-3.76,-3.76 -6.46,-7.66 -10.22,-11.33 -14.3,-13.98 -28.45,-31.29 -41.72,-43.61 -6.13,-5.71 -10.92,-9.43 -18.53,-13.84 -10.8,-6.15 -20.06,-9.55 -32.26,-12.5 -8.72,-2.08 -19.91,-3.68 -29.19,-3.89 -22.29,-0.49 -44.86,0.24 -67.18,-0.33 -36.99,-0.92 -74.73,-1.08 -111.99,-1.1l-1.8 0c-6.76,0 -13.52,0 -20.25,0l0 2.44 0 2.42z"/>
 </g>
</svg>
