<?xml version="1.0" encoding="UTF-8"?>
<!DOCTYPE svg PUBLIC "-//W3C//DTD SVG 1.1//EN" "http://www.w3.org/Graphics/SVG/1.1/DTD/svg11.dtd">
<!-- Creator: CorelDRAW -->
<svg xmlns="http://www.w3.org/2000/svg" xml:space="preserve" width="8.9916mm" height="10.8458mm" version="1.1" style="shape-rendering:geometricPrecision; text-rendering:geometricPrecision; image-rendering:optimizeQuality; fill-rule:evenodd; clip-rule:evenodd"
viewBox="0 0 899.16 1084.58"
 xmlns:xlink="http://www.w3.org/1999/xlink"
 xmlns:xodm="http://www.corel.com/coreldraw/odm/2003">
 <defs>
  <style type="text/css">
   <![CDATA[
    .fil1 {fill:#1C1B17}
    .fil0 {fill:#2F89FC}
    .fil2 {fill:#2F89FC;fill-rule:nonzero}
   ]]>
  </style>
 </defs>
 <g id="Layer_x0020_1">
  <metadata id="CorelCorpID_0Corel-Layer"/>
  <path class="fil0" d="M87.29 280.37l69.1 0c1.06,0.04 1.91,0.9 1.95,1.97l0 69.89c-0.04,1.07 -0.89,1.93 -1.95,1.97l-69.1 0c-1.06,-0.04 -1.92,-0.9 -1.95,-1.97l0 -69.89c0.03,-1.07 0.89,-1.93 1.95,-1.97l0 0z"/>
  <path class="fil0" d="M324.89 280.37l69.1 0c1.06,0.04 1.91,0.9 1.95,1.97l0 69.89c-0.04,1.07 -0.89,1.93 -1.95,1.97l-69.1 0c-1.06,-0.04 -1.91,-0.9 -1.95,-1.97l0 -69.89c0.04,-1.07 0.89,-1.93 1.95,-1.97z"/>
  <path class="fil0" d="M206.09 280.37l69.1 0c1.06,0.04 1.91,0.9 1.95,1.97l0 69.89c-0.04,1.07 -0.89,1.93 -1.95,1.97l-69.1 0c-1.06,-0.04 -1.91,-0.9 -1.95,-1.97l0 -69.89c0.04,-1.07 0.89,-1.93 1.95,-1.97l0 0z"/>
  <path class="fil0" d="M87.29 431.67l69.1 0c1.06,0.04 1.91,0.9 1.95,1.97l0 69.89c-0.04,1.07 -0.89,1.93 -1.95,1.97l-69.1 0c-1.06,-0.04 -1.92,-0.9 -1.95,-1.97l0 -69.89c0.03,-1.07 0.89,-1.93 1.95,-1.97l0 0z"/>
  <path class="fil0" d="M324.89 431.67l69.1 0c1.06,0.04 1.91,0.9 1.95,1.97l0 69.89c-0.04,1.07 -0.89,1.93 -1.95,1.97l-69.1 0c-1.06,-0.04 -1.91,-0.9 -1.95,-1.97l0 -69.89c0.04,-1.07 0.89,-1.93 1.95,-1.97l0 0z"/>
  <path class="fil0" d="M206.09 431.67l69.1 0c1.06,0.04 1.91,0.9 1.95,1.97l0 69.89c-0.04,1.07 -0.89,1.93 -1.95,1.97l-69.1 0c-1.06,-0.04 -1.91,-0.9 -1.95,-1.97l0 -69.89c0.04,-1.07 0.89,-1.93 1.95,-1.97l0 0z"/>
  <path class="fil0" d="M87.29 734.27l69.1 0c1.07,0 1.95,0.89 1.95,1.97l0 69.82c0,1.09 -0.88,1.97 -1.95,1.97l-69.1 0c-1.08,0 -1.95,-0.88 -1.95,-1.97l0 -69.82c0,-1.08 0.87,-1.97 1.95,-1.97l0 0z"/>
  <path class="fil0" d="M324.89 734.27l69.1 0c1.08,0 1.95,0.89 1.95,1.97l0 69.82c0,1.09 -0.87,1.97 -1.95,1.97l-69.1 0c-1.07,0 -1.95,-0.88 -1.95,-1.97l0 -69.82c0,-1.08 0.88,-1.97 1.95,-1.97l0 0z"/>
  <path class="fil0" d="M206.09 734.27l69.1 0c1.08,0 1.95,0.89 1.95,1.97l0 69.82c0,1.09 -0.87,1.97 -1.95,1.97l-69.1 0c-1.08,0 -1.95,-0.88 -1.95,-1.97l0 -69.82c0,-1.08 0.87,-1.97 1.95,-1.97l0 0z"/>
  <path class="fil0" d="M87.29 582.68l69.1 0c1.07,0 1.95,0.88 1.95,1.97l0 70.18c-0.04,1.07 -0.89,1.93 -1.95,1.97l-69.1 0c-1.06,-0.04 -1.92,-0.9 -1.95,-1.97l0 -69.89c0,-1.09 0.87,-1.97 1.95,-1.97l0 -0.29z"/>
  <path class="fil0" d="M324.89 582.68l69.1 0c1.08,0 1.95,0.88 1.95,1.97l0 70.18c-0.04,1.07 -0.89,1.93 -1.95,1.97l-69.1 0c-1.06,-0.04 -1.91,-0.9 -1.95,-1.97l0 -69.89c0,-1.09 0.88,-1.97 1.95,-1.97l0 -0.29z"/>
  <path class="fil0" d="M206.09 582.68l69.1 0c1.08,0 1.95,0.88 1.95,1.97l0 70.18c-0.04,1.07 -0.89,1.93 -1.95,1.97l-69.1 0c-1.06,-0.04 -1.91,-0.9 -1.95,-1.97l0 -69.89c-0.08,-0.57 0.08,-1.15 0.46,-1.59 0.37,-0.43 0.92,-0.68 1.49,-0.67z"/>
  <path class="fil1" d="M-0.21 1058.74l0 25.95 667.16 0 0 -0.08 74.08 0c6.49,0 11.75,-5.32 11.75,-11.88l0 -614.31c0.01,-4.6 -1.81,-9.01 -5.05,-12.25 -3.23,-3.26 -7.61,-5.1 -12.19,-5.1l-254.05 0 0 -231.03c0.01,-5.08 -1.84,-9.99 -5.19,-13.78l-0.94 -0.94c-3.81,-3.91 -9,-6.11 -14.43,-6.13l-440.8 0c-5.42,0.04 -10.61,2.24 -14.43,6.13 -3.41,3.4 -5.51,7.92 -5.91,12.75l0 850.67zm667.16 -0.07l0 0.07 -14.43 0 0 -123.9c0,-4.91 -3.94,-8.89 -8.8,-8.89l-99.04 0c-4.86,0 -8.8,3.98 -8.8,8.89l0 123.9 -54.32 0 0 -592.67 246.77 0 0 592.6 -61.38 0zm-211.06 0.07l25.67 0 0 0.15 -25.67 0 0 -0.15zm0 0l0 -843.67 -430.49 0 0 843.67 106.46 0 0 -175.57c0.04,-6.53 5.3,-11.81 11.76,-11.81l194.04 0c6.47,0 11.72,5.28 11.76,11.81l0 175.57 106.47 0zm179.32 0l-81.73 0 0 -115.3 81.73 0 0 115.3zm-479.82 -0.01l170.52 0 0 -163.69 -170.52 0 0 163.69z"/>
  <path class="fil0" d="M616.16 517.09l63.55 0c0.51,0 0.94,0.73 0.94,1.6l0 41.62c0,0.73 -0.43,1.53 -0.94,1.53l-63.55 0c-0.5,0 -0.93,-0.66 -0.93,-1.53l0 -41.62c0,-0.87 0.43,-1.6 0.93,-1.6z"/>
  <path class="fil0" d="M616.16 805.7l63.55 0c0.51,0 0.94,0.73 0.94,1.53l0 41.61c0,0.81 -0.43,1.61 -0.94,1.61l-63.55 0c-0.5,0 -0.93,-0.73 -0.93,-1.61l0 -41.61c0,-0.8 0.43,-1.53 0.93,-1.53l0 0z"/>
  <path class="fil0" d="M509.04 805.69l63.47 0c0.58,0 1.01,0.73 1.01,1.54l0 41.61c0,0.8 -0.43,1.6 -1.01,1.6l-63.47 0c-0.58,0 -1.01,-0.73 -1.01,-1.6l0 -41.61c0,-0.81 0.43,-1.54 1.01,-1.54l0 0z"/>
  <path class="fil0" d="M616.16 709.49l63.55 0c0.51,0 0.94,0.73 0.94,1.61l0 41.61c0,0.8 -0.43,1.6 -0.94,1.6l-63.55 0c-0.5,0 -0.93,-0.72 -0.93,-1.6l0 -41.61c0,-0.95 0.43,-1.61 0.93,-1.61z"/>
  <path class="fil0" d="M616.16 613.29l63.55 0c0.51,0 0.94,0.73 0.94,1.6l0 41.62c0,0.8 -0.43,1.6 -0.94,1.6l-63.55 0c-0.5,0 -0.93,-0.73 -0.93,-1.6l0 -41.62c0,-0.87 0.43,-1.6 0.93,-1.6z"/>
  <path class="fil0" d="M509.04 517.08l63.47 0c0.58,0 1.01,0.73 1.01,1.6l0 41.62c0,0.73 -0.43,1.53 -1.01,1.53l-63.47 0c-0.58,0 -1.01,-0.65 -1.01,-1.53l0 -41.62c0,-0.87 0.43,-1.6 1.01,-1.6z"/>
  <path class="fil0" d="M509.04 709.5l63.47 0c0.58,0 1.01,0.73 1.01,1.6l0 41.62c0,0.8 -0.43,1.6 -1.01,1.6l-63.47 0c-0.58,0 -1.01,-0.73 -1.01,-1.6l0 -41.62c0,-0.95 0.43,-1.6 1.01,-1.6z"/>
  <path class="fil0" d="M509.04 613.29l63.47 0c0.58,0 1.01,0.73 1.01,1.6l0 41.62c0,0.8 -0.43,1.6 -1.01,1.6l-63.47 0c-0.58,0 -1.01,-0.73 -1.01,-1.6l0 -41.62c0,-0.87 0.43,-1.6 1.01,-1.6z"/>
  <path class="fil2" d="M826.08 133.93l56.53 -51.24c13.56,-11.36 19.57,-29.44 15.52,-46.72 -4.05,-17.27 -17.46,-30.75 -34.63,-34.83 -17.17,-4.07 -35.15,1.98 -46.44,15.61l-49.96 57.85 -135.98 -59.08c-13.16,-5.5 -28.34,-0.28 -35.4,12.18 -7.06,12.46 -3.79,28.26 7.62,36.85l103.82 75.5 -67.99 77.96 -61.9 3.67c-17.06,-2.69 -26.81,21.09 -11.94,29.18l51.17 28.43c2.24,1.27 4.1,3.14 5.36,5.39l28.27 51.48c8.04,14.96 31.68,5.15 29,-12.01l4.15 -63 77.49 -68.39 75.06 104.43c8.54,11.48 24.24,14.76 36.63,7.66 12.38,-7.1 17.57,-22.36 12.1,-35.61l-58.48 -135.31z"/>
 </g>
</svg>
