<?xml version="1.0" encoding="UTF-8"?>
<!DOCTYPE svg PUBLIC "-//W3C//DTD SVG 1.1//EN" "http://www.w3.org/Graphics/SVG/1.1/DTD/svg11.dtd">
<!-- Creator: CorelDRAW -->
<svg xmlns="http://www.w3.org/2000/svg" xml:space="preserve" width="10.8458mm" height="10.8458mm" version="1.1" style="shape-rendering:geometricPrecision; text-rendering:geometricPrecision; image-rendering:optimizeQuality; fill-rule:evenodd; clip-rule:evenodd"
viewBox="0 0 1084.58 1084.58"
 xmlns:xlink="http://www.w3.org/1999/xlink"
 xmlns:xodm="http://www.corel.com/coreldraw/odm/2003">
 <defs>
  <style type="text/css">
   <![CDATA[
    .fil0 {fill:#1C1B17}
    .fil1 {fill:#2F89FC}
   ]]>
  </style>
 </defs>
 <g id="Layer_x0020_1">
  <metadata id="CorelCorpID_0Corel-Layer"/>
  <path class="fil0" d="M397.28 1070.47l673.28 -673.22 0.18 -0.36c4.5,-4.59 7.94,-9.89 10.24,-15.45 2.47,-5.91 3.71,-12.27 3.71,-18.62 0,-6.27 -1.24,-12.63 -3.71,-18.63 -2.38,-5.65 -5.83,-11.04 -10.51,-15.72l-89.08 -89.07c-3.09,-3.18 -7.06,-4.86 -11.13,-5.21 -4.23,-0.35 -8.47,0.71 -12.09,3 -7.68,4.59 -16.07,7.77 -24.63,9.54 -8.74,1.85 -17.66,2.2 -26.4,1.14 -8.92,-1.06 -17.75,-3.62 -25.87,-7.59 -7.77,-3.88 -15.1,-9 -21.54,-15.62l0 -0.09c-6.62,-6.62 -11.83,-14.04 -15.63,-21.81 -4.06,-8.21 -6.62,-16.86 -7.68,-25.69l0 -0.08c-1.06,-8.92 -0.62,-18.1 1.32,-26.93 1.95,-8.65 5.3,-16.95 10.07,-24.63l0.18 -0.27c2.03,-3.53 2.73,-7.59 2.29,-11.38 -0.44,-3.98 -2.21,-7.77 -5.03,-10.6l-89.08 -89.07c-4.59,-4.68 -9.98,-8.12 -15.72,-10.51 -5.91,-2.47 -12.27,-3.71 -18.63,-3.71 -6.35,0 -12.71,1.24 -18.71,3.71 -5.66,2.39 -11.04,5.83 -15.72,10.51l-673.55 673.58c-4.5,4.59 -7.94,9.8 -10.24,15.45 -2.47,5.91 -3.71,12.27 -3.71,18.62 0,6.36 1.24,12.72 3.71,18.63 2.39,5.65 5.83,11.04 10.51,15.72l88.37 88.45c3.18,3.18 7.42,5.04 11.66,5.3 4.24,0.35 8.47,-0.8 12.09,-3.53 7.68,-4.94 16.07,-8.48 24.81,-10.6 8.92,-2.12 18.19,-2.73 27.11,-1.85 9.09,0.88 18.1,3.35 26.57,7.42 8.12,3.79 15.72,9.09 22.43,15.8 6.71,6.71 12,14.39 15.8,22.42 3.97,8.48 6.45,17.48 7.42,26.57l0 0.09c0.88,9.27 0.26,18.63 -1.95,27.64 -2.11,8.91 -5.73,17.47 -10.94,25.33l-0.27 0.44c-2.12,3.53 -3,7.59 -2.65,11.48 0.44,4.15 2.12,8.03 5.12,11.03l88.73 88.64c4.59,4.5 9.89,7.94 15.45,10.24 6.01,2.47 12.27,3.71 18.63,3.71 6.36,0 12.63,-1.24 18.63,-3.71 5.39,-2.21 10.51,-5.39 14.92,-9.62 0.44,-0.18 0.89,-0.53 1.24,-0.89zm514.27 -565.26l-406.47 406.45 -331.79 -331.76 406.48 -406.45 331.78 331.76zm-431.8 431.69l-331.79 -331.67 -107.97 107.97c-1.15,1.15 -2.03,2.47 -2.56,3.97 -0.62,1.59 -0.97,3.27 -0.97,4.86 0,1.76 0.26,3.35 0.88,4.85 0.62,1.41 1.5,2.83 2.65,3.98l78.75 78.74c9.36,-4.59 19.25,-7.85 29.22,-9.8 11.22,-2.12 22.6,-2.64 33.91,-1.5 13.24,1.24 26.22,4.68 38.31,10.42 11.92,5.65 22.96,13.33 32.76,23.13 9.62,9.62 17.21,20.66 22.77,32.4 5.83,12.27 9.36,25.42 10.78,38.66 1.14,11.3 0.7,22.78 -1.5,33.9 -1.95,10.07 -5.21,19.87 -9.8,29.22l78.75 78.75c1.15,1.15 2.47,2.03 3.97,2.56 1.59,0.62 3.27,0.97 4.86,0.97 1.68,0 3.35,-0.35 4.85,-0.97 1.42,-0.62 2.83,-1.5 3.98,-2.65l108.15 -107.79zm457.14 -457.03l-331.78 -331.75 108.06 -108.15c1.15,-1.14 2.56,-2.03 3.98,-2.64 1.5,-0.62 3.08,-0.89 4.85,-0.89 1.59,0 3.27,0.36 4.86,0.97l0.17 0.09c1.42,0.62 2.74,1.5 3.8,2.56l79.55 79.54c-4.15,9.36 -7.07,19.07 -8.75,29.05 -1.76,10.94 -2.02,22.07 -0.7,33.1 1.5,12.89 5.21,25.52 10.95,37.43 5.56,11.48 13.06,22.16 22.6,31.7 9.53,9.53 20.22,17.03 31.69,22.6 11.83,5.73 24.37,9.35 37.35,10.85 11.12,1.33 22.25,1.06 33.19,-0.7 9.98,-1.68 19.69,-4.59 29.05,-8.74l79.73 79.72c1.06,1.14 1.94,2.38 2.47,3.79l0.09 0.18c0.62,1.41 0.88,3 0.88,4.68 0,1.59 -0.35,3.26 -0.97,4.85 -0.36,0.97 -0.88,1.86 -1.5,2.74 -0.53,0.18 -0.97,0.44 -1.42,0.88l-108.15 108.14z"/>
  <path class="fil1" d="M482.93 692.18c-0.8,0.8 -1.95,1.33 -3.18,1.33 -1.15,0 -2.21,-0.44 -3.09,-1.24l-21.28 -20.92c-0.62,-0.62 -1.06,-1.5 -1.24,-2.38 -0.97,-6.18 -1.67,-11.48 -2.29,-15.81l-0.62 -4.85c-1.15,-0.62 -2.21,-1.32 -3.27,-2.03 -1.59,-1.15 -3.17,-2.47 -4.67,-3.88l-0.27 -0.27c-1.32,-1.33 -2.47,-2.65 -3.53,-4.15l-0.18 -0.27c-0.62,-0.88 -1.23,-1.76 -1.76,-2.73l-5.74 -0.62c-3.98,-0.35 -8.57,-0.88 -13.33,-1.41 -0.98,-0.09 -1.86,-0.53 -2.57,-1.33l-22.95 -23.3c-1.68,-1.68 -1.68,-4.5 0,-6.18 11.48,-11.48 21.9,-16.6 32.84,-18.28 10.07,-1.5 20.22,-0.08 31.96,2.21l43.44 -43.43 -125.63 -48.82c-0.71,-0.18 -1.33,-0.53 -1.86,-1.06 -1.67,-1.68 -1.67,-4.5 0,-6.18 9.63,-9.62 15.63,-17.13 20.13,-22.78 13.6,-17.13 15.45,-19.51 49.18,-11.74l20.22 -20.22c1.68,-1.67 4.5,-1.67 6.18,0l20.3 20.31c1.68,1.68 1.68,4.5 0,6.18l-3.7 3.71 14.12 3.26 22.87 -22.86c1.67,-1.68 4.5,-1.68 6.18,0l20.3 20.3c1.68,1.68 1.68,4.51 0,6.18l-6.35 6.36 20.66 4.77 49.97 -49.97c4.68,-4.68 11.3,-6.36 18.18,-5.39 6.45,0.89 13.16,4.24 18.63,9.63l0.09 0.08c5.48,5.48 8.83,12.27 9.71,18.81 0.98,6.88 -0.79,13.5 -5.38,18.18l-49.97 49.97 4.77 20.39 6.26 -6.27c1.68,-1.67 4.51,-1.67 6.18,0l20.31 20.31c1.68,1.68 1.68,4.5 0,6.18l-22.78 22.78 3.27 14.12 3.62 -3.62c1.68,-1.68 4.5,-1.68 6.18,0l20.31 20.31c1.67,1.67 1.67,4.5 0,6.18l-20.13 20.12c7.59,33.81 4.41,36.2 -12.1,48.65 -5.83,4.41 -13.51,10.24 -23.31,19.95 -0.44,0.44 -0.97,0.71 -1.5,0.97 -2.21,0.88 -4.77,-0.26 -5.65,-2.47l-48.03 -124.92 -43.79 43.79c1.5,11.65 2.47,22.24 0.97,32.49 -1.67,11.12 -6.44,21.62 -16.68,31.86z"/>
 </g>
</svg>
