<?xml version="1.0" encoding="UTF-8"?>
<!DOCTYPE svg PUBLIC "-//W3C//DTD SVG 1.1//EN" "http://www.w3.org/Graphics/SVG/1.1/DTD/svg11.dtd">
<!-- Creator: CorelDRAW -->
<svg xmlns="http://www.w3.org/2000/svg" xml:space="preserve" width="9.779mm" height="7.747mm" version="1.1" style="shape-rendering:geometricPrecision; text-rendering:geometricPrecision; image-rendering:optimizeQuality; fill-rule:evenodd; clip-rule:evenodd"
viewBox="0 0 977.9 774.7"
 xmlns:xlink="http://www.w3.org/1999/xlink"
 xmlns:xodm="http://www.corel.com/coreldraw/odm/2003">
 <defs>
  <style type="text/css">
   <![CDATA[
    .fil0 {fill:#1C1B17}
    .fil1 {fill:#2F89FC}
   ]]>
  </style>
 </defs>
 <g id="Layer_x0020_1">
  <metadata id="CorelCorpID_0Corel-Layer"/>
  <g id="_2160988488800">
   <path class="fil0" d="M309.39 729.82l45.01 0 59.29 -66.37 -31.48 0 0 -40.6 97.35 0 -109.74 -124.1 29.59 -27.06 66.5 75 0 -2.96 162.72 0c7.08,0 13.4,3.86 16.94,9.66l48.05 69.34 90.4 0c5.94,0 11.38,2.7 15.04,6.96l99 100 78.25 0 0 46.52 -978.96 0 0 -46.52 269.3 0 0 -344.09 -251.22 0c-8.47,0 -15.55,-6.96 -15.55,-15.85 0,-0.51 0,-1.03 0.13,-1.55 0.63,-78.74 32.87,-150 84.71,-201.55 51.07,-50.78 121.24,-82.61 198.62,-83.77 1.52,-0.51 3.16,-0.77 4.81,-0.77 1.64,0 3.28,0.26 4.8,0.77 77,1.42 146.66,33.25 197.49,83.77 52.09,51.93 84.46,123.72 84.71,203.1 0,8.76 -6.83,15.72 -15.43,15.72l0 0.13 -250.33 0 0 344.22zm98.74 0l433.29 0 -65.75 -66.37 -308.24 0 -59.3 66.37zm236.55 -107.09l-111.64 0 -34.02 -38.4 119.1 0 26.56 38.4zm-175.75 -433.53c-20.98,-20.88 -45.76,-38.28 -72.95,-50.9 10.5,15.46 19.35,33.12 26.55,52.57 16.82,45.24 25.04,100.91 25.8,163.16l95.33 0c-4.05,-64.31 -31.86,-122.05 -74.73,-164.83zm-165.37 -74.22c9.99,0.64 19.72,1.8 29.33,3.48 26.93,17.52 47.04,46.39 60.69,83.76 15.55,41.76 23.14,93.56 23.89,151.94l-113.91 0 0 -239.18zm-30.96 -0.13c-9.73,0.64 -19.47,1.67 -28.82,3.22 -27.31,17.65 -47.54,46.78 -61.32,84.54 -15.3,41.62 -22.89,93.3 -23.65,151.42l113.92 0 0 -239.18 -0.13 0zm-166.26 74.48c21.36,-21.39 46.65,-39.05 74.59,-51.81 -11,15.73 -20.1,33.9 -27.43,54 -16.57,45.11 -24.79,100.65 -25.54,162.51l-96.47 0c4.17,-64.18 31.99,-121.91 74.85,-164.7z"/>
   <path class="fil1" d="M815.33 2.73c-5.57,0 -9.99,4.64 -9.99,10.19l0 25.9c0,5.67 4.55,10.18 9.99,10.18 5.56,0 9.98,-4.64 9.98,-10.18l0 -25.9c0,-5.67 -4.55,-10.19 -9.98,-10.19zm-81.17 33.9c-2.78,-4.77 -1.14,-10.96 3.67,-13.79 4.68,-2.84 10.75,-1.16 13.53,3.74l12.64 22.42c2.78,4.77 1.14,11.08 -3.66,13.79 -4.68,2.83 -10.75,1.16 -13.53,-3.61l-12.65 -22.55zm79.01 33.25c24.4,0 46.66,10.05 62.59,26.41 15.93,16.24 25.92,38.92 25.92,63.8 0,24.87 -9.87,47.42 -25.92,63.79 -15.93,16.36 -38.19,26.42 -62.59,26.42 -24.4,0 -46.52,-10.06 -62.58,-26.42 -15.93,-16.24 -25.92,-38.92 -25.92,-63.79 0,-24.88 9.86,-47.43 25.92,-63.8 16.06,-16.23 38.18,-26.41 62.58,-26.41zm65.5 -41.24c2.78,-4.76 8.72,-6.44 13.53,-3.6 4.67,2.83 6.32,8.89 3.66,13.78l-12.64 22.43c-2.78,4.77 -8.73,6.44 -13.53,3.74 -4.68,-2.84 -6.32,-8.9 -3.54,-13.79l12.52 -22.56zm69.18 54.76c-2.66,-4.89 -8.86,-6.57 -13.53,-3.73l-21.88 12.88c-4.8,2.84 -6.44,9.02 -3.66,13.79 2.78,4.9 8.85,6.57 13.53,3.74l21.87 -12.89c4.8,-2.83 6.32,-9.02 3.67,-13.79zm9.73 68.69c5.44,0 9.99,4.51 9.99,10.18 0,5.67 -4.43,10.18 -9.99,10.18l-25.41 0c-5.44,0 -9.99,-4.51 -9.99,-10.18 0,-5.67 4.42,-10.18 9.99,-10.18l25.41 0zm-11.77 88.54c2.66,-4.9 1.01,-10.95 -3.66,-13.79l-21.88 -12.76c-4.8,-2.83 -10.74,-1.16 -13.53,3.61 -2.78,4.9 -1.14,10.96 3.55,13.79l21.99 12.89c4.81,2.71 10.75,1.03 13.53,-3.74zm-53.6 42.91c2.78,4.77 1.14,11.08 -3.67,13.79 -4.67,2.84 -10.87,1.16 -13.52,-3.74l-12.65 -22.42c-2.78,-4.77 -1.14,-10.95 3.67,-13.79 4.68,-2.83 10.75,-1.16 13.53,3.74l12.64 22.42zm-81.18 33.9c5.57,0 9.99,-4.64 9.99,-10.18l0 -25.91c0,-5.67 -4.55,-10.18 -9.99,-10.18 -5.43,0 -9.86,4.64 -9.86,10.18l0 25.91c0,5.67 4.43,10.18 9.86,10.18zm-63.35 -25.91c-2.78,4.77 -8.72,6.45 -13.53,3.61 -4.67,-2.83 -6.32,-8.89 -3.66,-13.79l12.64 -22.42c2.78,-4.77 8.73,-6.45 13.53,-3.74 4.68,2.84 6.32,8.89 3.54,13.79l-12.52 22.55zm-69.15 -54.64c2.66,4.9 8.85,6.58 13.53,3.74l21.88 -12.89c4.8,-2.83 6.44,-9.02 3.66,-13.78 -2.78,-4.9 -8.85,-6.58 -13.53,-3.74l-22 12.89c-4.68,2.83 -6.32,9.02 -3.54,13.78zm-9.73 -68.81c-5.44,0 -9.99,-4.51 -9.99,-10.18 0,-5.54 4.42,-10.18 9.99,-10.18l25.41 0c5.44,0 9.99,4.51 9.99,10.18 0,5.54 -4.43,10.18 -9.99,10.18l-25.41 0zm11.74 -88.41c-2.65,4.9 -1.01,10.96 3.67,13.79l21.87 12.76c4.81,2.84 10.75,1.16 13.53,-3.61 2.78,-4.89 1.14,-10.95 -3.54,-13.79l-22 -12.88c-4.8,-2.71 -10.74,-1.03 -13.53,3.73z"/>
  </g>
 </g>
</svg>
