<?xml version="1.0" encoding="UTF-8"?>
<!DOCTYPE svg PUBLIC "-//W3C//DTD SVG 1.1//EN" "http://www.w3.org/Graphics/SVG/1.1/DTD/svg11.dtd">
<!-- Creator: CorelDRAW -->
<svg xmlns="http://www.w3.org/2000/svg" xml:space="preserve" width="10.3124mm" height="7.4168mm" version="1.1" style="shape-rendering:geometricPrecision; text-rendering:geometricPrecision; image-rendering:optimizeQuality; fill-rule:evenodd; clip-rule:evenodd"
viewBox="0 0 1031.24 741.68"
 xmlns:xlink="http://www.w3.org/1999/xlink"
 xmlns:xodm="http://www.corel.com/coreldraw/odm/2003">
 <defs>
  <style type="text/css">
   <![CDATA[
    .fil0 {fill:#1C1B17}
    .fil1 {fill:#2F89FC}
   ]]>
  </style>
 </defs>
 <g id="Layer_x0020_1">
  <metadata id="CorelCorpID_0Corel-Layer"/>
  <path class="fil0" d="M494.28 2.11l-331.35 0 0 0 0 0.11c-45.24,0.01 -86.27,18.81 -115.92,49.09 -0.58,0.59 -1.13,1.21 -1.65,1.83 -28.67,30.13 -46.4,71.26 -46.41,116.47l-0.12 0 0 0.04 0.12 0 0 241.63 -0.12 0 0 0.02 0.11 0c0.01,46.19 18.43,88.08 48.08,118.35 29.64,30.26 70.66,49.05 115.87,49.06l0 0.13 0.04 0 64.68 0c-4.54,14.49 -9.78,28.46 -16.28,41.82 -11.68,24.03 -27.8,46.93 -52.12,68.94 -12.36,11.16 -13.51,30.44 -2.58,43.06 7.67,8.84 19.24,12.06 29.73,9.36l0.03 0.1c55.77,-14.56 105.5,-36.77 149.46,-66.25 39.76,-26.64 74.47,-59.12 104.38,-97.16l3.4 0 0 0.13 0.01 0 0 -0.13c42.34,0 94.85,-17.32 136.44,-45.24 44.65,-29.97 78.18,-72.89 78.19,-122.15l0.12 0 0 -0.03 -0.12 0 0 -241.63 0.12 0 0 -0.01 -0.12 0c-0.01,-46.08 -18.44,-87.94 -48.13,-118.28l0.07 -0.06c-29.65,-30.28 -70.66,-49.06 -115.89,-49.08l0 -0.12 -0.04 0zm0.01 30.62l-331.34 0c-73.78,0 -134.12,61.62 -134.12,136.93l0 241.63c0,75.3 60.36,136.92 134.12,136.92l104.18 0c-14.9,60.2 -32.95,114.3 -88.11,164.23 105.45,-27.52 186.86,-83.19 246.61,-164.23l18.01 0c73.75,0 184.76,-61.62 184.76,-136.92l0 -241.64c0.01,-75.3 -60.35,-136.92 -134.11,-136.92zm-315.01 216.99c-26.88,0 -48.68,22.26 -48.68,49.69 0,27.44 21.8,49.69 48.68,49.69 26.87,0 48.67,-22.25 48.67,-49.69 0,-27.43 -21.79,-49.69 -48.67,-49.69zm298.67 0c-26.88,0 -48.67,22.26 -48.67,49.69 0,27.44 21.8,49.69 48.67,49.69 26.87,0 48.67,-22.25 48.67,-49.69 0,-27.43 -21.8,-49.69 -48.67,-49.69zm-198.02 49.69c0,-27.43 21.79,-49.69 48.67,-49.69 26.88,0 48.67,22.26 48.67,49.69 0,27.44 -21.79,49.69 -48.67,49.69 -26.88,0 -48.67,-22.25 -48.67,-49.69z"/>
  <path class="fil1" d="M912.19 72.26l-213.88 0c4,14.63 6.16,30.02 6.15,45.9l0 133.24c7.78,-5.52 17.22,-8.75 27.41,-8.75 26.57,0 48.12,22 48.12,49.12 0,27.12 -21.55,49.11 -48.12,49.11 -10.19,0 -19.63,-3.23 -27.41,-8.75l0 88.98c0,39.58 -24.46,76.13 -59.67,105.24 6.67,0.95 13.15,1.44 19.34,1.44l15.91 0c52.8,71.61 124.73,120.81 217.93,145.14 -48.73,-44.14 -64.68,-91.93 -77.86,-145.14l92.08 0c65.17,0 118.51,-54.46 118.51,-120.99l0 -213.54c0,-66.55 -53.32,-121 -118.51,-121zm-26.85 268.62c-26.56,0 -48.11,-22 -48.11,-49.12 0,-27.12 21.55,-49.12 48.11,-49.12 26.57,0 48.12,22 48.12,49.12 0,27.12 -21.55,49.12 -48.12,49.12z"/>
 </g>
</svg>
