<?xml version="1.0" encoding="UTF-8"?>
<!DOCTYPE svg PUBLIC "-//W3C//DTD SVG 1.1//EN" "http://www.w3.org/Graphics/SVG/1.1/DTD/svg11.dtd">
<!-- Creator: CorelDRAW -->
<svg xmlns="http://www.w3.org/2000/svg" xml:space="preserve" width="6.8072mm" height="8.255mm" version="1.1" style="shape-rendering:geometricPrecision; text-rendering:geometricPrecision; image-rendering:optimizeQuality; fill-rule:evenodd; clip-rule:evenodd"
viewBox="0 0 680.72 825.5"
 xmlns:xlink="http://www.w3.org/1999/xlink"
 xmlns:xodm="http://www.corel.com/coreldraw/odm/2003">
 <defs>
  <style type="text/css">
   <![CDATA[
    .fil0 {fill:#2F89FC}
    .fil1 {fill:white}
    .fil2 {fill:#1C1B17;fill-rule:nonzero}
   ]]>
  </style>
 </defs>
 <g id="Layer_x0020_1">
  <metadata id="CorelCorpID_0Corel-Layer"/>
  <path class="fil0" d="M122.77 156.02l-86.74 91.39c-8.22,8.66 -12.29,20.44 -11.18,32.32l47.16 500.26c2.15,22.74 22.37,39.45 45.17,37.31l126.54 -11.88 -120.95 -649.4z"/>
  <path class="fil1" d="M172.13 77.35l-110.22 221.93c-5.17,10.41 -5.58,22.54 -1.13,33.27l187.3 452.18c8.52,20.55 32.12,30.33 52.73,21.83l345.32 -142.4c20.6,-8.5 30.4,-32.05 21.89,-52.61l-187.3 -452.17c-4.45,-10.73 -13.33,-19.03 -24.35,-22.76l-235.1 -79.54c-19.16,-6.48 -40.16,2.18 -49.14,20.27zm122.68 103.14c-9.98,-24.1 -37.66,-35.57 -61.82,-25.6 -24.16,9.96 -35.65,37.57 -25.66,61.68 9.99,24.1 37.67,35.57 61.82,25.61 24.16,-9.96 35.65,-37.58 25.66,-61.69zm17.23 441.01l114.51 -275.23 -114.51 275.23zm-6.34 -195.54c8.73,21.07 -1.32,45.22 -22.44,53.94 -21.12,8.71 -45.33,-1.32 -54.06,-22.4 -8.73,-21.07 1.32,-45.22 22.44,-53.93 21.12,-8.71 45.33,1.31 54.06,22.39zm203.68 84.28c8.74,21.08 -1.31,45.23 -22.44,53.94 -21.12,8.71 -45.32,-1.31 -54.06,-22.39 -8.73,-21.08 1.32,-45.23 22.44,-53.94 21.13,-8.71 45.33,1.31 54.06,22.39zm-265.51 -334.52c-49.84,-82.24 -177.96,-197.81 -215.66,-147.65 -27.55,36.64 39.42,91.37 106.08,125.51l109.58 22.14z"/>
  <path class="fil2" d="M172.13 77.35l-14.22 -7.06 0 0 14.22 7.06zm-110.22 221.93l-14.22 -7.06 0 0 14.22 7.06zm-1.13 33.27l-14.67 6.08 0 0 14.67 -6.08zm187.3 452.18l14.67 -6.08 0 0 -14.67 6.08zm52.73 21.83l-6.05 -14.67 0 0 6.05 14.67zm345.32 -142.4l-6.05 -14.68 0 0 6.05 14.68zm21.89 -52.61l-14.67 6.08 0 0 14.67 -6.08zm-187.3 -452.17l-14.67 6.07 0 0 14.67 -6.07zm-24.35 -22.76l-5.09 15.04 0 0 5.09 -15.04zm-235.1 -79.54l-5.09 15.04 0 0 5.09 -15.04zm11.72 97.81l6.06 14.67 0 0 -6.06 -14.67zm-25.66 61.68l-14.67 6.07 0 0.01 14.67 -6.08zm61.82 25.61l-6.05 -14.68 0 0 6.05 14.68zm28.23 373.22c-3.36,8.09 0.47,17.39 8.56,20.75 8.1,3.37 17.39,-0.46 20.76,-8.56l-29.32 -12.19zm143.83 -263.03c3.37,-8.1 -0.46,-17.39 -8.56,-20.76 -8.09,-3.37 -17.39,0.47 -20.75,8.56l29.31 12.2zm-135.51 73.59l-14.67 6.07 0 0.01 14.67 -6.08zm-22.44 53.94l-6.05 -14.68 -0.01 0 6.06 14.68zm-54.06 -22.4l14.67 -6.07 0 0 -14.67 6.07zm22.44 -53.93l-6.05 -14.68 0 0 6.05 14.68zm257.74 106.67l-14.66 6.08 0 0 14.66 -6.08zm-22.44 53.94l6.06 14.68 0 0 -6.06 -14.68zm-54.06 -22.39l-14.66 6.07 0 0.01 14.66 -6.08zm22.44 -53.94l6.06 14.68 0 0 -6.06 -14.68zm-211.45 -312.13l-3.15 15.56c6.18,1.24 12.51,-1.28 16.13,-6.44 3.63,-5.15 3.86,-11.96 0.59,-17.35l-13.57 8.23zm-215.66 -147.65l12.68 9.53 0.01 0 -12.69 -9.53zm106.08 125.51l-7.24 14.13c1.29,0.66 2.67,1.14 4.09,1.43l3.15 -15.56zm23.62 -83.29l-110.22 221.93 28.44 14.13 110.22 -221.94 -28.44 -14.12zm-110.22 221.93c-7.2,14.52 -7.78,31.44 -1.58,46.41l29.33 -12.15c-2.69,-6.5 -2.44,-13.84 0.69,-20.13l-28.44 -14.13zm-1.58 46.41l187.3 452.17 29.34 -12.15 -187.31 -452.17 -29.33 12.15zm187.3 452.17c11.88,28.67 44.77,42.27 73.45,30.44l-12.1 -29.35c-12.53,5.16 -26.86,-0.8 -32.01,-13.24l-29.34 12.15zm73.45 30.44l345.32 -142.4 -12.1 -29.36 -345.32 142.41 12.1 29.35zm345.32 -142.4c28.7,-11.84 42.39,-44.67 30.5,-73.36l-29.33 12.15c5.15,12.42 -0.76,26.69 -13.27,31.85l12.1 29.36zm30.5 -73.36l-187.3 -452.18 -29.33 12.15 187.3 452.18 29.33 -12.15zm-187.3 -452.18c-6.2,-14.97 -18.57,-26.53 -33.93,-31.72l-10.17 30.08c6.7,2.26 12.08,7.3 14.77,13.79l29.33 -12.15zm-33.93 -31.72l-235.1 -79.54 -10.17 30.08 235.1 79.54 10.17 -30.08zm-235.09 -79.54c-26.66,-9.02 -55.93,3.03 -68.45,28.25l28.44 14.12c5.44,-10.96 18.18,-16.23 29.83,-12.29l10.18 -30.08zm83.12 132.38c-13.35,-32.22 -50.3,-47.5 -82.54,-34.21l12.11 29.35c16.08,-6.63 34.47,1.02 41.1,17.01l29.33 -12.15zm-82.54 -34.21c-32.25,13.3 -47.63,50.2 -34.28,82.43l29.33 -12.14c-6.61,-15.98 0.99,-34.31 17.06,-40.94l-12.11 -29.35zm-34.28 82.44c13.35,32.21 50.31,47.5 82.55,34.2l-12.11 -29.35c-16.08,6.63 -34.48,-1.01 -41.11,-17.01l-29.33 12.16zm82.54 34.2c32.26,-13.3 47.64,-50.2 34.28,-82.43l-29.33 12.15c6.62,15.97 -0.98,34.31 -17.05,40.93l12.1 29.35zm51.5 370.74l114.51 -275.22 -29.31 -12.2 -114.52 275.23 29.32 12.19zm85.2 -287.42l-114.52 275.23 29.32 12.19 114.51 -275.22 -29.31 -12.2zm-120.87 91.87c5.36,12.94 -0.79,27.81 -13.82,33.18l12.1 29.35c29.22,-12.05 43.16,-45.48 31.05,-74.69l-29.33 12.16zm-13.83 33.18c-13.04,5.38 -27.96,-0.83 -33.33,-13.79l-29.34 12.15c12.09,29.19 45.58,43.03 74.78,30.99l-12.11 -29.35zm-33.33 -13.79c-5.37,-12.95 0.79,-27.81 13.82,-33.19l-12.1 -29.35c-29.22,12.05 -43.16,45.48 -31.05,74.69l29.33 -12.15zm13.82 -33.19c13.05,-5.38 27.97,0.83 33.34,13.79l29.34 -12.15c-12.1,-29.19 -45.58,-43.03 -74.78,-30.99l12.1 29.35zm237.03 98.08c5.36,12.94 -0.8,27.81 -13.83,33.19l12.11 29.35c29.21,-12.05 43.15,-45.48 31.05,-74.69l-29.33 12.15zm-13.83 33.18c-13.05,5.38 -27.97,-0.82 -33.34,-13.78l-29.33 12.15c12.09,29.19 45.58,43.03 74.78,30.99l-12.11 -29.36zm-33.34 -13.78c-5.36,-12.95 0.79,-27.82 13.83,-33.19l-12.11 -29.35c-29.21,12.05 -43.15,45.47 -31.05,74.68l29.33 -12.14zm13.83 -33.19c13.05,-5.38 27.97,0.82 33.34,13.79l29.33 -12.15c-12.09,-29.19 -45.58,-43.04 -74.78,-30.99l12.11 29.35zm-203.94 -335.04c-26,-42.91 -71.86,-93.82 -116.3,-127.85 -22.12,-16.93 -45.11,-30.65 -66.06,-36.52 -21.06,-5.89 -44.47,-4.67 -59.56,15.41l25.38 19.07c3.75,-5 10.49,-8.14 25.62,-3.9 15.24,4.27 34.46,15.18 55.32,31.15 41.5,31.77 84.62,79.77 108.45,119.09l27.15 -16.45zm-241.92 -148.96c-10.47,13.92 -11.6,29.75 -6.86,44.62 4.5,14.12 14.21,27.53 25.81,39.61 23.32,24.29 58.43,47.46 92.58,64.95l14.47 -28.26c-32.51,-16.65 -64.21,-37.92 -84.15,-58.68 -10.04,-10.46 -16.06,-19.73 -18.46,-27.25 -2.15,-6.76 -1.32,-11.52 1.98,-15.92l-25.37 -19.07zm115.62 150.61l109.58 22.14 6.29 -31.13 -109.58 -22.13 -6.29 31.12z"/>
 </g>
</svg>
