<?xml version="1.0" encoding="UTF-8"?>
<!DOCTYPE svg PUBLIC "-//W3C//DTD SVG 1.1//EN" "http://www.w3.org/Graphics/SVG/1.1/DTD/svg11.dtd">
<!-- Creator: CorelDRAW -->
<svg xmlns="http://www.w3.org/2000/svg" xml:space="preserve" width="10.2616mm" height="10.2616mm" version="1.1" style="shape-rendering:geometricPrecision; text-rendering:geometricPrecision; image-rendering:optimizeQuality; fill-rule:evenodd; clip-rule:evenodd"
viewBox="0 0 1026.16 1026.16"
 xmlns:xlink="http://www.w3.org/1999/xlink"
 xmlns:xodm="http://www.corel.com/coreldraw/odm/2003">
 <defs>
  <style type="text/css">
   <![CDATA[
    .fil0 {fill:#1C1B17}
    .fil1 {fill:#2F89FC}
   ]]>
  </style>
 </defs>
 <g id="Layer_x0020_1">
  <metadata id="CorelCorpID_0Corel-Layer"/>
  <path class="fil0" d="M876.74 481.33c0.87,0.88 1.79,1.63 2.75,2.23l-381.27 381.21 -336.89 -336.89 381.22 -381.22 -0.35 -0.6c0.72,1.21 1.59,2.32 2.59,3.31l20.75 20.76c13.66,13.66 34.87,-7.55 21.21,-21.22l-20.75 -20.75c-1.06,-1.06 -2.17,-1.93 -3.32,-2.58l0.59 0.36 92.41 -92.4c4.39,-4.35 10.17,-6.57 15.87,-6.65 5.72,-0.05 11.44,2.05 15.7,6.31l305.67 305.67c4.27,4.27 6.36,9.98 6.29,15.68 -0.05,5.92 -2.42,11.63 -6.62,15.9l-92.4 92.41c-0.61,-0.95 -1.36,-1.87 -2.23,-2.74l-20.76 -20.75c-13.66,-13.67 -34.87,7.55 -21.21,21.21l20.75 20.75zm-62.21 -62.23c13.66,13.66 34.88,-7.55 21.21,-21.21l-20.75 -20.76c-13.66,-13.66 -34.88,7.56 -21.21,21.22l20.75 20.75zm-62.26 -62.25c13.66,13.66 34.87,-7.55 21.21,-21.21l-20.74 -20.74c-13.66,-13.66 -34.88,7.55 -21.21,21.21l20.74 20.74zm-62.25 -62.24c13.67,13.66 34.88,-7.55 21.22,-21.22l-20.74 -20.74c-13.66,-13.66 -34.88,7.55 -21.22,21.22l20.74 20.74zm-62.23 -62.23c13.67,13.66 34.88,-7.56 21.22,-21.22l-20.76 -20.75c-13.66,-13.66 -34.87,7.55 -21.21,21.21l20.75 20.76zm-612.86 404.68l622.15 -622.13c9.59,-9.67 22.22,-14.58 34.78,-14.73 12.55,-0.14 25.08,4.5 34.49,13.92l305.67 305.66c9.43,9.43 14.04,21.96 13.9,34.48 -0.14,12.57 -5.05,25.21 -14.68,34.83l-622.16 622.12c-9.54,9.61 -22.17,14.52 -34.74,14.66l-0.14 0c-12.51,0.11 -25.03,-4.48 -34.41,-13.86l-69.24 -69.24c-4.78,-4.78 -5.04,-12.39 -0.86,-17.68 13.04,-20.03 18.57,-43.49 16.52,-66.17 -2.07,-22.62 -11.68,-44.56 -28.89,-61.77 -17.21,-17.21 -39.17,-26.84 -61.77,-28.89 -23.04,-2.08 -46.88,3.63 -67.1,17.13 -5.31,3.54 -12.29,2.91 -16.71,-1.51l-77.59 -77.51c-9.43,-9.43 -14.06,-21.96 -13.93,-34.51 0.14,-12.57 5.05,-25.2 14.71,-34.8z"/>
  <path class="fil1" d="M22.36 668.89c0.22,-26.04 121.52,-130.84 121.52,-130.84l344.25 344.24c0,0 -106.3,121.07 -126.19,126.19 -19.88,5.11 -86.69,-71.44 -86.69,-71.44 0,0 20.14,-54.43 17.92,-76.02 -4.74,-46.16 -28.37,-81.19 -37.6,-90.41 -10.54,-10.54 -44.85,-32.76 -86.6,-33.8 -20.06,-0.5 -69.26,24.69 -69.26,24.69 0,0 -77.57,-66.58 -77.35,-92.61z"/>
 </g>
</svg>
