<?xml version="1.0" encoding="UTF-8"?>
<!DOCTYPE svg PUBLIC "-//W3C//DTD SVG 1.1//EN" "http://www.w3.org/Graphics/SVG/1.1/DTD/svg11.dtd">
<!-- Creator: CorelDRAW -->
<svg xmlns="http://www.w3.org/2000/svg" xml:space="preserve" width="9.2252mm" height="7.1424mm" version="1.1" style="shape-rendering:geometricPrecision; text-rendering:geometricPrecision; image-rendering:optimizeQuality; fill-rule:evenodd; clip-rule:evenodd"
viewBox="0 0 922.52 714.24"
 xmlns:xlink="http://www.w3.org/1999/xlink"
 xmlns:xodm="http://www.corel.com/coreldraw/odm/2003">
 <defs>
  <style type="text/css">
   <![CDATA[
    .fil3 {fill:none}
    .fil0 {fill:#5C0D34}
    .fil2 {fill:#FEFEFE;fill-rule:nonzero}
    .fil1 {fill:#757F8B;fill-rule:nonzero}
   ]]>
  </style>
   <clipPath id="id0">
    <path d="M-0 4.89c2.53,2.61 17.47,36.63 20.51,43.36l61.31 133.27c13.78,29.2 27.08,59.33 40.91,88.89 13.62,29.08 27.45,58.99 40.86,88.77 26.69,59.23 55.13,117.3 81.48,177.09 12.84,29.13 27.46,59.44 40.9,88.8l30.76 66.65c3.01,6.63 6.63,16.08 10.3,22.07l595.49 0.45 0 -3.43c-4.75,-3.57 -36.42,-38.09 -41.18,-43.22 -3.54,-3.82 -6.24,-6.43 -10.21,-10.51l-51.73 -55.49c-15.2,-15.97 -38.13,-39.03 -51.78,-54.51l-20.38 -21.96c-22.72,-25.01 -50.08,-51.73 -72.48,-77.09l-113.26 -120.05c-11.51,-12.86 -30.15,-31.05 -41.58,-43.99 -12.63,-14.31 -28.14,-29.68 -41.13,-43.55l-51.8 -55.43c-7.44,-7.88 -13.29,-13.73 -20.73,-21.62l-72.1 -76.54c-3.77,-3.77 -6.48,-7.68 -10.25,-11.36 -14.34,-14.02 -28.54,-31.38 -41.84,-43.74 -6.15,-5.73 -10.95,-9.46 -18.59,-13.88 -10.83,-6.17 -20.12,-9.58 -32.36,-12.54 -8.75,-2.09 -19.97,-3.69 -29.28,-3.9 -22.36,-0.49 -44.99,0.24 -67.38,-0.33 -37.1,-0.92 -74.95,-1.08 -112.32,-1.1l-1.81 0c-6.78,0 -13.56,0 -20.31,0l0 2.45 0 2.43 -0.02 0.01z"/>
   </clipPath>
 </defs>
 <g id="Layer_x0020_1">
  <metadata id="CorelCorpID_0Corel-Layer"/>
  <path class="fil0" d="M-0 4.89c2.53,2.61 17.47,36.63 20.51,43.36l61.31 133.27c13.78,29.2 27.08,59.33 40.91,88.89 13.62,29.08 27.45,58.99 40.86,88.77 26.69,59.23 55.13,117.3 81.48,177.09 12.84,29.13 27.46,59.44 40.9,88.8l30.76 66.65c3.01,6.63 6.63,16.08 10.3,22.07l595.49 0.45 0 -3.43c-4.75,-3.57 -36.42,-38.09 -41.18,-43.22 -3.54,-3.82 -6.24,-6.43 -10.21,-10.51l-51.73 -55.49c-15.2,-15.97 -38.13,-39.03 -51.78,-54.51l-20.38 -21.96c-22.72,-25.01 -50.08,-51.73 -72.48,-77.09l-113.26 -120.05c-11.51,-12.86 -30.15,-31.05 -41.58,-43.99 -12.63,-14.31 -28.14,-29.68 -41.13,-43.55l-51.8 -55.43c-7.44,-7.88 -13.29,-13.73 -20.73,-21.62l-72.1 -76.54c-3.77,-3.77 -6.48,-7.68 -10.25,-11.36 -14.34,-14.02 -28.54,-31.38 -41.84,-43.74 -6.15,-5.73 -10.95,-9.46 -18.59,-13.88 -10.83,-6.17 -20.12,-9.58 -32.36,-12.54 -8.75,-2.09 -19.97,-3.69 -29.28,-3.9 -22.36,-0.49 -44.99,0.24 -67.38,-0.33 -37.1,-0.92 -74.95,-1.08 -112.32,-1.1l-1.81 0c-6.78,0 -13.56,0 -20.31,0l0 2.45 0 2.43 -0.02 0.01z"/>
  <g style="clip-path:url(#id0)">
   <g id="_2399183220288">
    <path id="_1" class="fil1" d="M172.81 383.71c0,2.48 46.73,5.37 111.67,7.85 12.82,-7.85 20.68,-12.82 26.06,-18.19 -77.76,4.96 -137.73,7.86 -137.73,10.34z"/>
    <path class="fil1" d="M219.54 272.04c0,2.48 38.88,5.37 93.48,7.85 -7.86,-5.37 -15.72,-10.34 -26.06,-12.82 -38.47,2.07 -67.42,2.07 -67.42,4.97z"/>
    <path class="fil1" d="M636.03 513.58c26.06,0 49.22,0 64.94,0 26.06,0 46.74,-7.86 46.74,-18.2 0,-10.34 -20.68,-18.2 -46.74,-18.2 -23.58,0 -52.11,0 -88.51,0 15.72,23.57 20.68,33.91 23.57,36.4l0 0z"/>
    <path class="fil1" d="M622.8 537.15c-7.86,10.34 -15.72,18.2 -28.54,28.54 0,0 -5.38,5.38 -15.72,0 -12.82,-5.38 -23.57,-12.82 -36.39,-28.54 -36.4,0 -72.79,2.48 -109.19,2.48 -2.48,5.38 -10.34,12.82 -15.72,26.06 104.23,2.48 215.9,5.38 272.98,5.38 23.57,0 44.25,-7.86 44.25,-15.72 0,-10.34 -18.2,-15.72 -44.25,-15.72 -20.68,-2.48 -41.36,-2.48 -67.42,-2.48l0 0z"/>
    <path class="fil1" d="M661.68 623.18c20.68,0 38.88,-7.86 38.88,-15.72 0,-7.86 -18.2,-15.71 -38.88,-15.71 -57.08,0 -171.65,2.48 -270.5,5.37 -5.37,7.86 -10.34,12.82 -12.82,20.68 101.33,5.38 223.76,5.38 283.32,5.38z"/>
    <path class="fil1" d="M334.11 669.91c83.13,2.49 226.24,5.38 283.31,5.38 15.72,0 31.02,-5.38 31.02,-10.34 0,-4.96 -12.82,-10.34 -31.02,-10.34 -57.07,0 -189.84,2.48 -272.97,5.38 -2.48,2.07 -4.96,7.03 -10.34,9.92z"/>
    <path class="fil1" d="M550.01 700.94c-49.22,0 -197.7,2.48 -197.7,7.85 0,5.38 148.07,7.86 197.7,7.86 10.34,0 18.2,-2.48 18.2,-7.86 -0.01,-2.48 -7.86,-7.85 -18.2,-7.85z"/>
    <path class="fil1" d="M550.01 401.9c62.45,0 117.04,2.49 150.96,2.49 26.06,0 46.74,-7.86 46.74,-18.2 0,-10.34 -20.68,-18.2 -46.74,-18.2 -41.77,0 -109.19,0 -181.98,2.48 12.82,10.76 23.16,21.09 31.02,31.43z"/>
    <path class="fil1" d="M248.49 321.25c-36.39,2.49 -59.97,5.38 -59.97,5.38 0,2.48 28.54,5.38 70.31,7.86 -7.85,-5.38 -10.34,-10.75 -10.34,-13.24z"/>
    <path class="fil1" d="M687.73 344.83c23.58,0 44.26,-7.86 44.26,-15.72 0,-10.34 -18.2,-15.72 -44.26,-15.72 -49.21,0 -137.72,0 -226.23,2.49 10.34,10.34 20.68,18.2 31.02,28.53 78.17,0.42 150.96,0.42 195.21,0.42z"/>
    <path class="fil1" d="M420.14 284.86c90.99,2.48 189.84,2.48 241.95,2.48 20.68,0 38.88,-7.86 38.88,-15.72 0,-7.86 -18.2,-15.71 -38.88,-15.71 -57.08,0 -171.64,2.48 -270.49,5.37 5.37,2.49 10.34,7.86 15.71,10.34 4.97,5.38 9.93,8.27 12.83,13.24z"/>
    <path class="fil1" d="M620.32 227.78c15.71,0 31.02,-5.38 31.02,-10.34 0,-4.96 -12.82,-10.34 -31.02,-10.34 -64.94,-2.48 -220.86,0 -299.03,5.38 5.37,2.48 10.34,7.85 15.71,10.34 80.24,2.06 223.35,4.96 283.32,4.96z"/>
    <path class="fil1" d="M705.93 458.98c26.06,0 46.74,-7.86 46.74,-18.2 0,-10.34 -20.68,-18.2 -46.74,-18.2 -31.02,0 -80.65,0 -135.24,2.49 10.34,12.82 18.2,23.57 26.05,33.91 44.26,0 83.14,0 109.19,0z"/>
    <path class="fil1" d="M568.2 173.19c0,-5.38 -7.85,-7.86 -18.19,-7.86 -49.22,0 -197.7,2.48 -197.7,7.86 0,5.37 148.06,7.85 197.7,7.85 10.34,0 18.19,-5.37 18.19,-7.85z"/>
    <path class="fil2" d="M167.84 427.96c0,7.86 0,18.2 0,26.06 86.03,2.48 169.17,7.86 169.17,15.71 0,5.38 -80.66,10.35 -166.27,15.72 2.48,10.34 2.48,20.68 5.38,28.54 83.13,2.48 161.3,7.86 161.3,12.82 0,4.96 -72.79,10.34 -153.44,12.82 2.48,10.34 7.85,20.68 12.82,31.02 70.31,2.48 127.39,7.86 127.39,12.82 0,5.38 -49.22,7.86 -114.57,12.82 2.48,5.38 7.86,10.35 10.34,15.72 5.38,5.38 7.86,10.34 12.82,18.2 38.88,2.48 67.42,5.38 67.42,10.34 0,2.48 -18.2,5.38 -49.22,7.86 15.72,15.71 36.4,31.02 57.08,44.25 0,0 26.05,-23.57 49.21,-49.21 20.68,-23.58 62.46,-88.51 70.31,-101.34 10.35,-12.82 15.72,-18.19 28.54,-12.82 15.72,5.38 33.92,7.86 38.88,7.86 4.96,0 7.86,-2.48 0,-5.38 -10.34,-2.48 -46.74,-20.68 -62.45,-57.07 -20.68,-38.88 -2.48,-96.37 -2.48,-96.37 7.85,28.54 23.57,41.77 23.57,41.77 -5.38,-28.54 0,-52.11 12.82,-70.31l10.34 31.02c0,0 5.38,0 15.72,10.34 10.34,10.34 15.71,23.58 15.71,23.58 -10.34,2.48 -20.67,-5.38 -20.67,-5.38 12.82,52.11 33.91,96.37 49.21,119.53 15.72,23.57 26.06,31.02 41.78,36.39 12.82,5.38 15.71,0 15.71,0 10.34,-10.34 18.2,-18.19 28.54,-28.53 0,0 0,0 -2.48,0 -5.38,0 -18.2,-10.34 -18.2,-15.72 -2.48,-5.38 -2.48,-7.86 0,-7.86 2.48,0 2.48,2.48 15.72,10.34 10.34,7.86 18.19,2.48 20.67,-2.48 2.49,-2.48 0,-7.86 -2.48,-10.34 -2.48,-2.48 -62.45,-117.05 -226.23,-239.47 -213.42,-158.82 -351.15,-200.18 -359.01,-205.56 -5.37,-2.48 -12.82,-5.38 -15.71,-2.48 -2.48,2.48 -2.48,5.37 -2.48,7.86 0,2.48 2.48,2.48 10.34,7.85 83.13,36.4 179.5,96.37 231.61,132.77 67.42,33.91 129.87,80.65 132.76,80.65 5.38,2.48 2.49,7.86 -2.48,5.38 -114.56,-75.28 -246.91,-127.39 -392.91,-169.16 -7.86,-2.49 -10.34,-2.49 -12.83,0 -2.48,2.48 -2.48,2.48 -2.48,5.37 0,2.9 2.48,5.38 7.86,5.38 158.82,59.97 272.97,111.67 348.66,163.78 0,0 7.86,5.38 7.86,10.34 0,2.49 -5.38,2.49 -5.38,2.49 -36.39,0 -88.51,2.48 -111.67,5.37 0,0 2.48,12.83 26.06,20.68 18.2,7.86 33.91,5.38 49.22,5.38 2.48,0 7.85,2.48 2.48,7.86 4.55,4.96 -28.95,59.97 -153.86,72.79z"/>
   </g>
  </g>
  <path class="fil3" d="M-0 4.89c2.53,2.61 17.47,36.63 20.51,43.36l61.31 133.27c13.78,29.2 27.08,59.33 40.91,88.89 13.62,29.08 27.45,58.99 40.86,88.77 26.69,59.23 55.13,117.3 81.48,177.09 12.84,29.13 27.46,59.44 40.9,88.8l30.76 66.65c3.01,6.63 6.63,16.08 10.3,22.07l595.49 0.45 0 -3.43c-4.75,-3.57 -36.42,-38.09 -41.18,-43.22 -3.54,-3.82 -6.24,-6.43 -10.21,-10.51l-51.73 -55.49c-15.2,-15.97 -38.13,-39.03 -51.78,-54.51l-20.38 -21.96c-22.72,-25.01 -50.08,-51.73 -72.48,-77.09l-113.26 -120.05c-11.51,-12.86 -30.15,-31.05 -41.58,-43.99 -12.63,-14.31 -28.14,-29.68 -41.13,-43.55l-51.8 -55.43c-7.44,-7.88 -13.29,-13.73 -20.73,-21.62l-72.1 -76.54c-3.77,-3.77 -6.48,-7.68 -10.25,-11.36 -14.34,-14.02 -28.54,-31.38 -41.84,-43.74 -6.15,-5.73 -10.95,-9.46 -18.59,-13.88 -10.83,-6.17 -20.12,-9.58 -32.36,-12.54 -8.75,-2.09 -19.97,-3.69 -29.28,-3.9 -22.36,-0.49 -44.99,0.24 -67.38,-0.33 -37.1,-0.92 -74.95,-1.08 -112.32,-1.1l-1.81 0c-6.78,0 -13.56,0 -20.31,0l0 2.45 0 2.43 -0.02 0.01z"/>
 </g>
</svg>
