<?xml version="1.0" encoding="UTF-8"?>
<!DOCTYPE svg PUBLIC "-//W3C//DTD SVG 1.1//EN" "http://www.w3.org/Graphics/SVG/1.1/DTD/svg11.dtd">
<!-- Creator: CorelDRAW -->
<svg xmlns="http://www.w3.org/2000/svg" xml:space="preserve" width="9.2252mm" height="7.1424mm" version="1.1" style="shape-rendering:geometricPrecision; text-rendering:geometricPrecision; image-rendering:optimizeQuality; fill-rule:evenodd; clip-rule:evenodd"
viewBox="0 0 919.77 712.11"
 xmlns:xlink="http://www.w3.org/1999/xlink"
 xmlns:xodm="http://www.corel.com/coreldraw/odm/2003">
 <defs>
  <style type="text/css">
   <![CDATA[
    .fil3 {fill:none}
    .fil2 {fill:none;fill-rule:nonzero}
    .fil0 {fill:#C41230}
    .fil1 {fill:url(#id3);fill-rule:nonzero}
   ]]>
  </style>
   <clipPath id="id0">
    <path d="M-0 4.87c2.52,2.6 17.42,36.52 20.45,43.23l61.13 132.87c13.74,29.11 27,59.15 40.79,88.63 13.58,28.99 27.37,58.81 40.74,88.51 26.61,59.05 54.97,116.95 81.24,176.56 12.8,29.04 27.38,59.26 40.78,88.54l30.67 66.45c3,6.61 6.61,16.03 10.27,22l593.71 0.45 0 -3.42c-4.74,-3.56 -36.31,-37.98 -41.06,-43.09 -3.53,-3.81 -6.22,-6.41 -10.18,-10.48l-51.58 -55.32c-15.15,-15.92 -38.02,-38.91 -51.63,-54.35l-20.32 -21.89c-22.65,-24.94 -49.93,-51.58 -72.26,-76.86l-112.92 -119.69c-11.48,-12.82 -30.06,-30.96 -41.46,-43.86 -12.59,-14.27 -28.06,-29.59 -41.01,-43.42l-51.65 -55.26c-7.42,-7.86 -13.25,-13.69 -20.67,-21.56l-71.89 -76.31c-3.76,-3.76 -6.46,-7.66 -10.22,-11.33 -14.3,-13.98 -28.45,-31.29 -41.72,-43.61 -6.13,-5.71 -10.92,-9.43 -18.53,-13.84 -10.8,-6.15 -20.06,-9.55 -32.26,-12.5 -8.72,-2.08 -19.91,-3.68 -29.19,-3.89 -22.29,-0.49 -44.86,0.24 -67.18,-0.33 -36.99,-0.92 -74.73,-1.08 -111.99,-1.1l-1.8 0c-6.76,0 -13.52,0 -20.25,0l0 2.44 0 2.42z"/>
   </clipPath>
     <clipPath id="id1" style="clip-rule:nonzero">
      <path d="M427.26 533.89c5.54,-1.99 14.34,0.14 19.54,4.77 5.21,4.58 4.85,9.79 -0.68,11.65 -5.47,1.87 -14.07,-0.23 -19.24,-4.7 -5.23,-4.49 -5.11,-9.76 0.38,-11.71zm41.27 -210.4c21.81,-4.18 48.03,8.34 57.87,27.39 9.46,18.38 -0.18,35.58 -20.95,38.92 -20.43,3.27 -44.97,-7.9 -55.44,-25.49 -10.9,-18.2 -2.9,-36.7 18.52,-40.82zm2.44 72.26c16.1,-2.59 35.46,6.26 42.89,19.46 7.24,12.84 0.24,24.8 -15.29,26.96 -15.32,2.12 -33.74,-6.01 -41.56,-18.42 -8,-12.77 -1.93,-25.44 13.96,-28zm1.42 60.94c11.97,-1.6 26.4,4.71 32.01,13.98 5.5,9.06 0.38,17.44 -11.28,18.82 -11.51,1.38 -25.4,-4.56 -31.23,-13.42 -5.95,-9.04 -1.33,-17.77 10.49,-19.38zm1.01 42.96c9.07,-1.06 19.99,3.58 24.29,10.29 4.24,6.61 0.42,12.66 -8.45,13.61 -8.81,0.93 -19.44,-3.55 -23.85,-10.03 -4.51,-6.56 -0.96,-12.84 8.02,-13.87zm0.74 31.18c6.94,-0.72 15.32,2.77 18.66,7.76 3.29,4.93 0.39,9.41 -6.46,10.04 -6.81,0.66 -15.01,-2.71 -18.41,-7.57 -3.45,-4.93 -0.68,-9.51 6.21,-10.23zm-267.11 -178.92c7.76,-12.42 31.97,-11.6 53.41,1.92 21.03,13.26 30.53,33.15 21.86,44.41 -8.41,10.91 -31.09,9.84 -51.22,-2.3 -20.56,-12.33 -31.59,-32.02 -24.06,-44.03zm61.51 65.03c6.56,-8.48 24.88,-7.64 40.54,1.96 15.41,9.47 21.9,23.56 14.9,31.43 -6.9,7.7 -24.31,6.73 -39.26,-2.14 -15.2,-8.96 -22.56,-22.95 -16.17,-31.25zm53.18 56.86c5.42,-5.86 19.32,-5.08 30.87,1.84 11.41,6.81 15.86,16.85 10.17,22.39 -5.58,5.42 -18.98,4.55 -30.13,-1.92 -11.25,-6.58 -16.24,-16.52 -10.91,-22.31zm38.43 41.08c4.42,-4.2 15.1,-3.48 23.77,1.58 8.59,5.04 11.74,12.4 7.19,16.4 -4.49,3.97 -14.89,3.25 -23.33,-1.64 -8.51,-4.89 -11.98,-12.18 -7.63,-16.34zm28.42 30.42c3.57,-3.09 11.85,-2.52 18.47,1.31 6.56,3.82 8.86,9.29 5.22,12.25 -3.62,2.95 -11.72,2.34 -18.2,-1.34 -6.53,-3.72 -9.01,-9.19 -5.5,-12.22zm-63.36 -223.34c15.87,-9.01 43.36,-2 60.54,15.39 16.67,16.9 16.73,36.68 0.9,44.5 -15.41,7.58 -40.88,1.17 -57.6,-14.54 -17.2,-16.17 -19.28,-36.57 -3.84,-45.35zm35.65 73.08c12.08,-5.92 32.39,-0.82 44.91,11.3 12.23,11.82 12,25.62 -0.04,30.95 -11.83,5.21 -31.04,0.41 -43.28,-10.81 -12.54,-11.47 -13.43,-25.6 -1.59,-31.44zm29.8 62.32c9.23,-3.98 24.37,-0.22 33.55,8.34 8.98,8.38 8.64,18.07 -0.58,21.72 -9.07,3.57 -23.56,0 -32.59,-8.07 -9.2,-8.2 -9.48,-18.07 -0.38,-21.98zm21.14 44.23c7.13,-2.77 18.61,0.07 25.45,6.26 6.8,6.15 6.43,13.14 -0.69,15.73 -7.02,2.55 -18.12,-0.18 -24.91,-6.11 -6.89,-6.03 -6.87,-13.14 0.14,-15.88z"/>
     </clipPath>
     <clipPath id="id2" style="clip-rule:nonzero">
      <path d="M-0 4.87c2.52,2.6 17.42,36.52 20.45,43.23l61.13 132.87c13.74,29.11 27,59.15 40.79,88.63 13.58,28.99 27.37,58.81 40.74,88.51 26.61,59.05 54.97,116.95 81.24,176.56 12.8,29.04 27.38,59.26 40.78,88.54l30.67 66.45c3,6.61 6.61,16.03 10.27,22l593.71 0.45 0 -3.42c-4.74,-3.56 -36.31,-37.98 -41.06,-43.09 -3.53,-3.81 -6.22,-6.41 -10.18,-10.48l-51.58 -55.32c-15.15,-15.92 -38.02,-38.91 -51.63,-54.35l-20.32 -21.89c-22.65,-24.94 -49.93,-51.58 -72.26,-76.86l-112.92 -119.69c-11.48,-12.82 -30.06,-30.96 -41.46,-43.86 -12.59,-14.27 -28.06,-29.59 -41.01,-43.42l-51.65 -55.26c-7.42,-7.86 -13.25,-13.69 -20.67,-21.56l-71.89 -76.31c-3.76,-3.76 -6.46,-7.66 -10.22,-11.33 -14.3,-13.98 -28.45,-31.29 -41.72,-43.61 -6.13,-5.71 -10.92,-9.43 -18.53,-13.84 -10.8,-6.15 -20.06,-9.55 -32.26,-12.5 -8.72,-2.08 -19.91,-3.68 -29.19,-3.89 -22.29,-0.49 -44.86,0.24 -67.18,-0.33 -36.99,-0.92 -74.73,-1.08 -111.99,-1.1l-1.8 0c-6.76,0 -13.52,0 -20.25,0l0 2.44 0 2.42z"/>
     </clipPath>
  <linearGradient id="id3" gradientUnits="userSpaceOnUse" x1="425.22" y1="558.48" x2="385.13" y2="310.35">
   <stop offset="0" style="stop-opacity:1; stop-color:#FFDD00"/>
   <stop offset="1" style="stop-opacity:1; stop-color:#F58220"/>
  </linearGradient>
 </defs>
 <g id="Layer_x0020_1">
  <metadata id="CorelCorpID_0Corel-Layer"/>
  <path class="fil0" d="M-0 4.87c2.52,2.6 17.42,36.52 20.45,43.23l61.13 132.87c13.74,29.11 27,59.15 40.79,88.63 13.58,28.99 27.37,58.81 40.74,88.51 26.61,59.05 54.97,116.95 81.24,176.56 12.8,29.04 27.38,59.26 40.78,88.54l30.67 66.45c3,6.61 6.61,16.03 10.27,22l593.71 0.45 0 -3.42c-4.74,-3.56 -36.31,-37.98 -41.06,-43.09 -3.53,-3.81 -6.22,-6.41 -10.18,-10.48l-51.58 -55.32c-15.15,-15.92 -38.02,-38.91 -51.63,-54.35l-20.32 -21.89c-22.65,-24.94 -49.93,-51.58 -72.26,-76.86l-112.92 -119.69c-11.48,-12.82 -30.06,-30.96 -41.46,-43.86 -12.59,-14.27 -28.06,-29.59 -41.01,-43.42l-51.65 -55.26c-7.42,-7.86 -13.25,-13.69 -20.67,-21.56l-71.89 -76.31c-3.76,-3.76 -6.46,-7.66 -10.22,-11.33 -14.3,-13.98 -28.45,-31.29 -41.72,-43.61 -6.13,-5.71 -10.92,-9.43 -18.53,-13.84 -10.8,-6.15 -20.06,-9.55 -32.26,-12.5 -8.72,-2.08 -19.91,-3.68 -29.19,-3.89 -22.29,-0.49 -44.86,0.24 -67.18,-0.33 -36.99,-0.92 -74.73,-1.08 -111.99,-1.1l-1.8 0c-6.76,0 -13.52,0 -20.25,0l0 2.44 0 2.42z"/>
  <g style="clip-path:url(#id0)">
   <g id="_2435504426784">
    <g>
     <g>
     </g>
    </g>
    <g style="clip-path:url(#id1)">
     <g>
      <polygon id="_1" class="fil1" points="624.67,587.75 560.39,185.81 176.75,247.16 241.02,649.09 "/>
     </g>
    </g>
    <g style="clip-path:url(#id2)">
     <path class="fil2" d="M427.26 533.89c5.54,-1.99 14.34,0.14 19.54,4.77 5.21,4.58 4.85,9.79 -0.68,11.65 -5.47,1.87 -14.07,-0.23 -19.24,-4.7 -5.23,-4.49 -5.11,-9.76 0.38,-11.71m41.27 -210.4c21.81,-4.18 48.03,8.34 57.87,27.39 9.46,18.38 -0.18,35.58 -20.95,38.92 -20.43,3.27 -44.97,-7.9 -55.44,-25.49 -10.9,-18.2 -2.9,-36.7 18.52,-40.82m2.44 72.26c16.1,-2.59 35.46,6.26 42.89,19.46 7.24,12.84 0.24,24.8 -15.29,26.96 -15.32,2.12 -33.74,-6.01 -41.56,-18.42 -8,-12.77 -1.93,-25.44 13.96,-28m1.42 60.94c11.97,-1.6 26.4,4.71 32.01,13.98 5.5,9.06 0.38,17.44 -11.28,18.82 -11.51,1.38 -25.4,-4.56 -31.23,-13.42 -5.95,-9.04 -1.33,-17.77 10.49,-19.38m1.01 42.96c9.07,-1.06 19.99,3.58 24.29,10.29 4.24,6.61 0.42,12.66 -8.45,13.61 -8.81,0.93 -19.44,-3.55 -23.85,-10.03 -4.51,-6.56 -0.96,-12.84 8.02,-13.87m0.74 31.18c6.94,-0.72 15.32,2.77 18.66,7.76 3.29,4.93 0.39,9.41 -6.46,10.04 -6.81,0.66 -15.01,-2.71 -18.41,-7.57 -3.45,-4.93 -0.68,-9.51 6.21,-10.23m-267.11 -178.92c7.76,-12.42 31.97,-11.6 53.41,1.92 21.03,13.26 30.53,33.15 21.86,44.41 -8.41,10.91 -31.09,9.84 -51.22,-2.3 -20.56,-12.33 -31.59,-32.02 -24.06,-44.03m61.51 65.03c6.56,-8.48 24.88,-7.64 40.54,1.96 15.41,9.47 21.9,23.56 14.9,31.43 -6.9,7.7 -24.31,6.73 -39.26,-2.14 -15.2,-8.96 -22.56,-22.95 -16.17,-31.25m53.18 56.86c5.42,-5.86 19.32,-5.08 30.87,1.84 11.41,6.81 15.86,16.85 10.17,22.39 -5.58,5.42 -18.98,4.55 -30.13,-1.92 -11.25,-6.58 -16.24,-16.52 -10.91,-22.31m38.43 41.08c4.42,-4.2 15.1,-3.48 23.77,1.58 8.59,5.04 11.74,12.4 7.19,16.4 -4.49,3.97 -14.89,3.25 -23.33,-1.64 -8.51,-4.89 -11.98,-12.18 -7.63,-16.34m28.42 30.42c3.57,-3.09 11.85,-2.52 18.47,1.31 6.56,3.82 8.86,9.29 5.22,12.25 -3.62,2.95 -11.72,2.34 -18.2,-1.34 -6.53,-3.72 -9.01,-9.19 -5.5,-12.22m-63.36 -223.34c15.87,-9.01 43.36,-2 60.54,15.39 16.67,16.9 16.73,36.68 0.9,44.5 -15.41,7.58 -40.88,1.17 -57.6,-14.54 -17.2,-16.17 -19.28,-36.57 -3.84,-45.35m35.65 73.08c12.08,-5.92 32.39,-0.82 44.91,11.3 12.23,11.82 12,25.62 -0.04,30.95 -11.83,5.21 -31.04,0.41 -43.28,-10.81 -12.54,-11.47 -13.43,-25.6 -1.59,-31.44m29.8 62.32c9.23,-3.98 24.37,-0.22 33.55,8.34 8.98,8.38 8.64,18.07 -0.58,21.72 -9.07,3.57 -23.56,0 -32.59,-8.07 -9.2,-8.2 -9.48,-18.07 -0.38,-21.98m21.14 44.23c7.13,-2.77 18.61,0.07 25.45,6.26 6.8,6.15 6.43,13.14 -0.69,15.73 -7.02,2.55 -18.12,-0.18 -24.91,-6.11 -6.89,-6.03 -6.87,-13.14 0.14,-15.88z"/>
    </g>
   </g>
  </g>
  <path class="fil3" d="M-0 4.87c2.52,2.6 17.42,36.52 20.45,43.23l61.13 132.87c13.74,29.11 27,59.15 40.79,88.63 13.58,28.99 27.37,58.81 40.74,88.51 26.61,59.05 54.97,116.95 81.24,176.56 12.8,29.04 27.38,59.26 40.78,88.54l30.67 66.45c3,6.61 6.61,16.03 10.27,22l593.71 0.45 0 -3.42c-4.74,-3.56 -36.31,-37.98 -41.06,-43.09 -3.53,-3.81 -6.22,-6.41 -10.18,-10.48l-51.58 -55.32c-15.15,-15.92 -38.02,-38.91 -51.63,-54.35l-20.32 -21.89c-22.65,-24.94 -49.93,-51.58 -72.26,-76.86l-112.92 -119.69c-11.48,-12.82 -30.06,-30.96 -41.46,-43.86 -12.59,-14.27 -28.06,-29.59 -41.01,-43.42l-51.65 -55.26c-7.42,-7.86 -13.25,-13.69 -20.67,-21.56l-71.89 -76.31c-3.76,-3.76 -6.46,-7.66 -10.22,-11.33 -14.3,-13.98 -28.45,-31.29 -41.72,-43.61 -6.13,-5.71 -10.92,-9.43 -18.53,-13.84 -10.8,-6.15 -20.06,-9.55 -32.26,-12.5 -8.72,-2.08 -19.91,-3.68 -29.19,-3.89 -22.29,-0.49 -44.86,0.24 -67.18,-0.33 -36.99,-0.92 -74.73,-1.08 -111.99,-1.1l-1.8 0c-6.76,0 -13.52,0 -20.25,0l0 2.44 0 2.42z"/>
 </g>
</svg>
